{"title":"The Hungar Games 2013 HDCAM NEW SOURCE READNFO FYB3Kingz","uid":9254215,"size":3103765040,"categoryP":"video","categoryS":"movies","magnet":"?xt=urn:btih:9b46d5d627a015a174b5143a0e39a1973c760678&amp;dn=The+Hungar+Games+2013+HDCAM+NEW+SOURCE+READNFO+FYB3Kingz&amp;tr=udp%3A%2F%2Ftracker.openbittorrent.com%3A80&amp;tr=udp%3A%2F%2Fopen.demonii.com%3A1337&amp;tr=udp%3A%2F%2Ftracker.coppersurfer.tk%3A6969&amp;tr=udp%3A%2F%2Fexodus.desync.com%3A6969","seeders":1,"leechers":0,"uploader":"TeX","files":-1,"time":1385523943,"description":" &lt;a href=&quot;http://t.imgbox.com/acsd5uLd.jpg&quot; rel=&quot;nofollow&quot; target=&quot;_NEW&quot;&gt;http://t.imgbox.com/acsd5uLd.jpg&lt;/a&gt;\n\nIMBD &lt;a href=&quot;\nhttp://www.imdb.com/title/tt1951264/&quot; rel=&quot;nofollow&quot; target=&quot;_NEW&quot;&gt;\nhttp://www.imdb.com/title/tt1951264/&lt;/a&gt;\n\nPlot\nKatniss Everdeen and Peeta Mellark become targets of the Capitol after their victory in the 74th Hunger Games\n\nsparks a rebellion in the Districts of Panem.\n\nGeneral\nComplete name                            : C:The.Hungar.Games. 2013.Cam.New.Source.[Read.Info]FYB3Kingz.avi\nFormat                                   : AVI\nFormat/Info                              : Audio Video Interleave\nFormat profile                           : OpenDML\nFile size                                : 2.87 GiB\nDuration                                 : 2h 15mn\nOverall bit rate                         : 3 046 Kbps\nWriting library                          : VirtualDub build 32842/release\n\nVideo\nID                                       : 0\nFormat                                   : AVC\nFormat/Info                              : Advanced Video Codec\nFormat profile                           : &lt;a class=&quot;__cf_email__&quot; href=&quot;/cdn-cgi/l/email-protection&quot; data-cfemail=&quot;c48cada3ac8488f0eaf5&quot;&gt;[email&amp;#160;protected]&lt;/a&gt;&lt;script cf-hash='f9e31' type=&quot;text/javascript&quot;&gt;\n/* &lt;![CDATA[ */!function(){try{var t=&quot;currentScript&quot;in document?document.currentScript:function(){for(var t=document.getElementsByTagName(&quot;script&quot;),e=t.length;e--;)if(t[e].getAttribute(&quot;cf-hash&quot;))return t[e]}();if(t&amp;&amp;t.previousSibling){var e,r,n,i,c=t.previousSibling,a=c.getAttribute(&quot;data-cfemail&quot;);if(a){for(e=&quot;&quot;,r=parseInt(a.substr(0,2),16),n=2;a.length-n;n+=2)i=parseInt(a.substr(n,2),16)^r,e+=String.fromCharCode(i);e=document.createTextNode(e),c.parentNode.replaceChild(e,c)}}}catch(u){}}();/* ]]&gt; */&lt;/script&gt;\nFormat settings, CABAC                   : Yes\nFormat settings, ReFrames                : 5 frames\nCodec ID                                 : X264\nCodec ID/Info                            : XiWave GNU GPL x264 MPEG-4\nDuration                                 : 2h 15mn\nBit rate                                 : 1 500 Kbps\nWidth                                    : 720 pixels\nHeight                                   : 320 pixels\nDisplay aspect ratio                     : 2.25:1\nFrame rate                               : 29.644 fps\nColor space                              : YUV\nChroma subsampling                       : 4:2:0\nBit depth                                : 8 bits\nScan type                                : Progressive\nBits/(Pixel*Frame)                       : 0.220\nStream size                              : 1.41 GiB (49%)\nWriting library                          : x264 core 130 r2274bm c832fe9\nEncoding settings                        : cabac=1 / ref=5 / deblock=1:-1:-1 / analyse=0x3:0x113 / me=umh / subme=8\n\n/ psy=1 / psy_rd=1.00:0.15 / mixed_ref=1 / me_range=16 / chroma_me=1 / trellis=1 / 8x8dct=1 / cqm=0 /\n\ndeadzone=21,11 / fast_pskip=1 / chroma_qp_offset=-3 / threads=12 / lookahead_threads=2 / sliced_threads=0 / nr=0 /\n\ndecimate=1 / interlaced=0 / bluray_compat=0 / constrained_intra=0 / bframes=3 / b_pyramid=2 / b_adapt=2 / b_bias=0\n\n/ direct=3 / weightb=1 / open_gop=0 / weightp=2 / keyint=250 / keyint_min=25 / scenecut=40 / intra_refresh=0 /\n\nrc_lookahead=50 / rc=abr / mbtree=1 / bitrate=1500 / ratetol=1.0 / qcomp=0.60 / qpmin=0 / qpmax=69 / qpstep=4 /\n\nip_ratio=1.40 / aq=1:1.00\n\nAudio\nID                                       : 1\nFormat                                   : PCM\nFormat settings, Endianness              : Little\nFormat settings, Sign                    : Signed\nCodec ID                                 : 1\nDuration                                 : 2h 15mn\nBit rate mode                            : Constant\nBit rate                                 : 1 536 Kbps\nChannel(s)                               : 2 channels\nSampling rate                            : 48.0 KHz\nBit depth                                : 16 bits\nStream size                              : 1.45 GiB (50%)\nAlignment                                : Aligned on interleaves\nInterleave, duration                     : 34 ms (1.00 video frame)\nInterleave, preload duration             : 500 ms\n\n\n\nPics\n &lt;a href=&quot;\nhttp://t.imgbox.com/adzlYuZx.jpg&quot; rel=&quot;nofollow&quot; target=&quot;_NEW&quot;&gt;\nhttp://t.imgbox.com/adzlYuZx.jpg&lt;/a&gt; &lt;a href=&quot;\nhttp://t.imgbox.com/abqxD0Eg.jpg&quot; rel=&quot;nofollow&quot; target=&quot;_NEW&quot;&gt;\nhttp://t.imgbox.com/abqxD0Eg.jpg&lt;/a&gt; &lt;a href=&quot;\nhttp://t.imgbox.com/acmgI7dA.jpg&quot; rel=&quot;nofollow&quot; target=&quot;_NEW&quot;&gt;\nhttp://t.imgbox.com/acmgI7dA.jpg&lt;/a&gt; &lt;a href=&quot;\nhttp://t.imgbox.com/aczS5IXL.jpg&quot; rel=&quot;nofollow&quot; target=&quot;_NEW&quot;&gt;\nhttp://t.imgbox.com/aczS5IXL.jpg&lt;/a&gt; &lt;a href=&quot;\nhttp://t.imgbox.com/aczS5IXL.jpg&quot; rel=&quot;nofollow&quot; target=&quot;_NEW&quot;&gt;\nhttp://t.imgbox.com/aczS5IXL.jpg&lt;/a&gt; &lt;a href=&quot;\nhttp://t.imgbox.com/abgHkeBS.jpg&quot; rel=&quot;nofollow&quot; target=&quot;_NEW&quot;&gt;\nhttp://t.imgbox.com/abgHkeBS.jpg&lt;/a&gt; &lt;a href=&quot;\nhttp://t.imgbox.com/acdLhHum.jpg&quot; rel=&quot;nofollow&quot; target=&quot;_NEW&quot;&gt;\nhttp://t.imgbox.com/acdLhHum.jpg&lt;/a&gt;","torrent":{"xt":"urn:btih:9b46d5d627a015a174b5143a0e39a1973c760678","amp;dn":"The+Hungar+Games+2013+HDCAM+NEW+SOURCE+READNFO+FYB3Kingz","amp;tr":["udp%3A%2F%2Ftracker.openbittorrent.com%3A80","udp%3A%2F%2Fopen.demonii.com%3A1337","udp%3A%2F%2Ftracker.coppersurfer.tk%3A6969","udp%3A%2F%2Fexodus.desync.com%3A6969"],"infoHash":"9b46d5d627a015a174b5143a0e39a1973c760678","infoHashBuffer":{"type":"Buffer","data":[155,70,213,214,39,160,21,161,116,181,20,58,14,57,161,151,60,118,6,120]},"announce":[],"urlList":[]}}